<svg width="20" height="20" viewBox="0 0 20 20" fill="none" xmlns="http://www.w3.org/2000/svg">
<path d="M11.6645 3.33331C11.9652 3.33331 12.2602 3.41464 12.5184 3.56868C12.7766 3.72272 12.9883 3.94374 13.1312 4.20831L13.5362 4.95831C13.679 5.22289 13.8907 5.44391 14.1489 5.59795C14.4071 5.75199 14.7022 5.83332 15.0028 5.83331H16.667C17.109 5.83331 17.5329 6.00891 17.8455 6.32147C18.1581 6.63403 18.3337 7.05795 18.3337 7.49998V15C18.3337 15.442 18.1581 15.8659 17.8455 16.1785C17.5329 16.4911 17.109 16.6666 16.667 16.6666H3.33366C2.89163 16.6666 2.46771 16.4911 2.15515 16.1785C1.84259 15.8659 1.66699 15.442 1.66699 15V7.49998C1.66699 7.05795 1.84259 6.63403 2.15515 6.32147C2.46771 6.00891 2.89163 5.83331 3.33366 5.83331H4.99783C5.29818 5.83333 5.59295 5.75218 5.85098 5.59845C6.109 5.44472 6.32069 5.22412 6.46366 4.95998L6.87116 4.20665C7.01413 3.9425 7.22581 3.7219 7.48384 3.56817C7.74187 3.41444 8.03664 3.3333 8.33699 3.33331H11.6645Z" stroke="white" stroke-width="1.66667" stroke-linecap="round" stroke-linejoin="round"/>
<path d="M10 13.3333C11.3807 13.3333 12.5 12.214 12.5 10.8333C12.5 9.4526 11.3807 8.33331 10 8.33331C8.61929 8.33331 7.5 9.4526 7.5 10.8333C7.5 12.214 8.61929 13.3333 10 13.3333Z" stroke="white" stroke-width="1.66667" stroke-linecap="round" stroke-linejoin="round"/>
</svg>
