<svg preserveAspectRatio="none" width="100%" height="100%" overflow="visible" style="display: block;" viewBox="0 0 20 20" fill="none" xmlns="http://www.w3.org/2000/svg">
<g id="Icon">
<path id="Vector" d="M11.6642 3.33333C11.9648 3.33333 12.2599 3.41466 12.5181 3.5687C12.7763 3.72274 12.988 3.94376 13.1308 4.20833L13.5358 4.95833C13.6786 5.22291 13.8904 5.44393 14.1486 5.59797C14.4068 5.75201 14.7018 5.83334 15.0025 5.83333H16.6667C17.1087 5.83333 17.5326 6.00893 17.8452 6.32149C18.1577 6.63405 18.3333 7.05797 18.3333 7.5V15C18.3333 15.442 18.1577 15.8659 17.8452 16.1785C17.5326 16.4911 17.1087 16.6667 16.6667 16.6667H3.33333C2.89131 16.6667 2.46738 16.4911 2.15482 16.1785C1.84226 15.8659 1.66667 15.442 1.66667 15V7.5C1.66667 7.05797 1.84226 6.63405 2.15482 6.32149C2.46738 6.00893 2.89131 5.83333 3.33333 5.83333H4.9975C5.29785 5.83335 5.59262 5.7522 5.85065 5.59847C6.10868 5.44474 6.32037 5.22414 6.46333 4.96L6.87083 4.20667C7.0138 3.94252 7.22549 3.72192 7.48352 3.56819C7.74154 3.41446 8.03632 3.33332 8.33667 3.33333H11.6642Z" stroke="var(--stroke-0, white)" stroke-width="1.66667" stroke-linecap="round" stroke-linejoin="round"/>
<path id="Vector_2" d="M10 13.3333C11.3807 13.3333 12.5 12.214 12.5 10.8333C12.5 9.45262 11.3807 8.33333 10 8.33333C8.61929 8.33333 7.5 9.45262 7.5 10.8333C7.5 12.214 8.61929 13.3333 10 13.3333Z" stroke="var(--stroke-0, white)" stroke-width="1.66667" stroke-linecap="round" stroke-linejoin="round"/>
</g>
</svg>
