<svg width="16" height="16" viewBox="0 0 16 16" fill="none" xmlns="http://www.w3.org/2000/svg">
<g clip-path="url(#clip0_228_17)">
<path d="M15.04 8.16666C15.04 7.64666 14.9933 7.14666 14.9067 6.66666H8V9.50666H11.9467C11.7733 10.42 11.2533 11.1933 10.4733 11.7133V13.56H12.8533C14.24 12.28 15.04 10.4 15.04 8.16666Z" fill="#4285F4"/>
<path d="M7.99997 15.3333C9.97997 15.3333 11.64 14.68 12.8533 13.56L10.4733 11.7133C9.81997 12.1533 8.98664 12.42 7.99997 12.42C6.09331 12.42 4.47331 11.1333 3.89331 9.39999H1.45331V11.2933C2.65997 13.6867 5.13331 15.3333 7.99997 15.3333Z" fill="#34A853"/>
<path d="M3.89335 9.39332C3.74669 8.95332 3.66002 8.48665 3.66002 7.99998C3.66002 7.51332 3.74669 7.04665 3.89335 6.60665V4.71332H1.45335C0.953354 5.69998 0.666687 6.81332 0.666687 7.99998C0.666687 9.18665 0.953354 10.3 1.45335 11.2867L3.35335 9.80665L3.89335 9.39332Z" fill="#FBBC05"/>
<path d="M7.99997 3.58666C9.07997 3.58666 10.04 3.95999 10.8066 4.67999L12.9066 2.57999C11.6333 1.39332 9.97997 0.666656 7.99997 0.666656C5.13331 0.666656 2.65997 2.31332 1.45331 4.71332L3.89331 6.60666C4.47331 4.87332 6.09331 3.58666 7.99997 3.58666Z" fill="#EA4335"/>
</g>
<defs>
<clipPath id="clip0_228_17">
<rect width="16" height="16" fill="white"/>
</clipPath>
</defs>
</svg>
