<svg width="30" height="30" viewBox="0 0 30 30" fill="none" xmlns="http://www.w3.org/2000/svg">
<path d="M27.5099 7.92623C28.2309 7.20543 28.636 6.22776 28.6361 5.20827C28.6362 4.18879 28.2314 3.21101 27.5106 2.49003C26.7898 1.76906 25.8121 1.36395 24.7926 1.36382C23.7731 1.36369 22.7953 1.76856 22.0744 2.48935L3.87508 20.6927C3.55846 21.0084 3.32432 21.3971 3.19325 21.8246L1.39187 27.7592C1.35662 27.8771 1.35396 28.0024 1.38416 28.1217C1.41436 28.241 1.4763 28.35 1.56341 28.4369C1.65051 28.5239 1.75953 28.5856 1.87891 28.6157C1.99828 28.6457 2.12355 28.6428 2.24142 28.6074L8.1774 26.8073C8.60445 26.6775 8.9931 26.4447 9.30923 26.1296L27.5099 7.92623Z" stroke="#0093E9" stroke-width="1.33333" stroke-linecap="round" stroke-linejoin="round"/>
</svg>
