<svg width="16" height="16" viewBox="0 0 16 16" fill="none" xmlns="http://www.w3.org/2000/svg">
<g id="Icon" clip-path="url(#clip0_319_189)">
<path id="Vector" d="M7.33333 1.33337V2.66671" stroke="#0A0A0A" stroke-width="1.33333" stroke-linecap="round" stroke-linejoin="round"/>
<path id="Vector_2" d="M3.33333 1.33337V2.66671" stroke="#0A0A0A" stroke-width="1.33333" stroke-linecap="round" stroke-linejoin="round"/>
<path id="Vector_3" d="M3.33333 2H2.66666C2.31304 2 1.9739 2.14048 1.72385 2.39052C1.4738 2.64057 1.33333 2.97971 1.33333 3.33333V6C1.33333 7.06087 1.75476 8.07828 2.5049 8.82843C3.25505 9.57857 4.27246 10 5.33333 10C6.39419 10 7.41161 9.57857 8.16176 8.82843C8.9119 8.07828 9.33333 7.06087 9.33333 6V3.33333C9.33333 2.97971 9.19285 2.64057 8.9428 2.39052C8.69276 2.14048 8.35362 2 8 2H7.33333" stroke="#0A0A0A" stroke-width="1.33333" stroke-linecap="round" stroke-linejoin="round"/>
<path id="Vector_4" d="M5.33333 10C5.33333 11.0609 5.75476 12.0783 6.5049 12.8284C7.25505 13.5786 8.27246 14 9.33333 14C10.3942 14 11.4116 13.5786 12.1618 12.8284C12.9119 12.0783 13.3333 11.0609 13.3333 10V8" stroke="#0A0A0A" stroke-width="1.33333" stroke-linecap="round" stroke-linejoin="round"/>
<path id="Vector_5" d="M13.3333 8.00004C14.0697 8.00004 14.6667 7.40309 14.6667 6.66671C14.6667 5.93033 14.0697 5.33337 13.3333 5.33337C12.597 5.33337 12 5.93033 12 6.66671C12 7.40309 12.597 8.00004 13.3333 8.00004Z" stroke="#0A0A0A" stroke-width="1.33333" stroke-linecap="round" stroke-linejoin="round"/>
</g>
<defs>
<clipPath id="clip0_319_189">
<rect width="16" height="16" fill="white"/>
</clipPath>
</defs>
</svg>
