<svg width="16" height="16" viewBox="0 0 16 16" fill="none" xmlns="http://www.w3.org/2000/svg">
<g id="Icon">
<path id="Vector" d="M14.6667 8.00004H13.0134C12.722 7.99942 12.4385 8.09424 12.2061 8.27002C11.9738 8.44579 11.8054 8.69284 11.7267 8.97337L10.16 14.5467C10.1499 14.5813 10.1289 14.6117 10.1 14.6334C10.0712 14.655 10.0361 14.6667 10 14.6667C9.96398 14.6667 9.92889 14.655 9.90004 14.6334C9.87119 14.6117 9.85014 14.5813 9.84004 14.5467L6.16004 1.45337C6.14994 1.41875 6.12889 1.38834 6.10004 1.36671C6.07119 1.34507 6.0361 1.33337 6.00004 1.33337C5.96398 1.33337 5.92889 1.34507 5.90004 1.36671C5.87119 1.38834 5.85014 1.41875 5.84004 1.45337L4.27337 7.02671C4.19502 7.30614 4.02763 7.55238 3.79662 7.72805C3.56561 7.90371 3.28359 7.99921 2.99337 8.00004H1.33337" stroke="#4A5565" stroke-width="1.33333" stroke-linecap="round" stroke-linejoin="round"/>
</g>
</svg>
