<svg width="16" height="16" viewBox="0 0 16 16" fill="none" xmlns="http://www.w3.org/2000/svg">
<g id="Icon">
<path id="Vector" d="M7.33334 1.33337V2.66671" stroke="#4A5565" stroke-width="1.33333" stroke-linecap="round" stroke-linejoin="round"/>
<path id="Vector_2" d="M3.33334 1.33337V2.66671" stroke="#4A5565" stroke-width="1.33333" stroke-linecap="round" stroke-linejoin="round"/>
<path id="Vector_3" d="M3.33334 2H2.66668C2.31305 2 1.97392 2.14048 1.72387 2.39052C1.47382 2.64057 1.33334 2.97971 1.33334 3.33333V6C1.33334 7.06087 1.75477 8.07828 2.50492 8.82843C3.25506 9.57857 4.27248 10 5.33334 10C6.39421 10 7.41163 9.57857 8.16177 8.82843C8.91192 8.07828 9.33334 7.06087 9.33334 6V3.33333C9.33334 2.97971 9.19287 2.64057 8.94282 2.39052C8.69277 2.14048 8.35363 2 8.00001 2H7.33334" stroke="#4A5565" stroke-width="1.33333" stroke-linecap="round" stroke-linejoin="round"/>
<path id="Vector_4" d="M5.33334 10C5.33334 11.0609 5.75477 12.0783 6.50492 12.8284C7.25506 13.5786 8.27248 14 9.33334 14C10.3942 14 11.4116 13.5786 12.1618 12.8284C12.9119 12.0783 13.3333 11.0609 13.3333 10V8" stroke="#4A5565" stroke-width="1.33333" stroke-linecap="round" stroke-linejoin="round"/>
<path id="Vector_5" d="M13.3333 8.00004C14.0697 8.00004 14.6667 7.40309 14.6667 6.66671C14.6667 5.93033 14.0697 5.33337 13.3333 5.33337C12.597 5.33337 12 5.93033 12 6.66671C12 7.40309 12.597 8.00004 13.3333 8.00004Z" stroke="#4A5565" stroke-width="1.33333" stroke-linecap="round" stroke-linejoin="round"/>
</g>
</svg>
