<svg width="16" height="16" viewBox="0 0 16 16" fill="none" xmlns="http://www.w3.org/2000/svg">
<path d="M7.33325 1.33325V2.66659" stroke="#0A0A0A" stroke-width="1.33333" stroke-linecap="round" stroke-linejoin="round"/>
<path d="M3.33325 1.33325V2.66659" stroke="#0A0A0A" stroke-width="1.33333" stroke-linecap="round" stroke-linejoin="round"/>
<path d="M3.33325 2H2.66659C2.31296 2 1.97382 2.14048 1.72378 2.39052C1.47373 2.64057 1.33325 2.97971 1.33325 3.33333V6C1.33325 7.06087 1.75468 8.07828 2.50482 8.82843C3.25497 9.57857 4.27239 10 5.33325 10C6.39412 10 7.41153 9.57857 8.16168 8.82843C8.91182 8.07828 9.33325 7.06087 9.33325 6V3.33333C9.33325 2.97971 9.19278 2.64057 8.94273 2.39052C8.69268 2.14048 8.35354 2 7.99992 2H7.33325" stroke="#0A0A0A" stroke-width="1.33333" stroke-linecap="round" stroke-linejoin="round"/>
<path d="M5.33325 10C5.33325 11.0609 5.75468 12.0783 6.50482 12.8284C7.25497 13.5786 8.27239 14 9.33325 14C10.3941 14 11.4115 13.5786 12.1617 12.8284C12.9118 12.0783 13.3333 11.0609 13.3333 10V8" stroke="#0A0A0A" stroke-width="1.33333" stroke-linecap="round" stroke-linejoin="round"/>
<path d="M13.3333 7.99992C14.0697 7.99992 14.6667 7.40297 14.6667 6.66659C14.6667 5.93021 14.0697 5.33325 13.3333 5.33325C12.597 5.33325 12 5.93021 12 6.66659C12 7.40297 12.597 7.99992 13.3333 7.99992Z" stroke="#0A0A0A" stroke-width="1.33333" stroke-linecap="round" stroke-linejoin="round"/>
</svg>
