<svg width="16" height="16" viewBox="0 0 16 16" fill="none" xmlns="http://www.w3.org/2000/svg">
<g id="Icon">
<path id="Vector" d="M10.6667 14V12.6667C10.6667 11.9594 10.3857 11.2811 9.88562 10.781C9.38552 10.281 8.70724 10 8 10H4C3.29276 10 2.61448 10.281 2.11438 10.781C1.61429 11.2811 1.33333 11.9594 1.33333 12.6667V14" stroke="#0A0A0A" stroke-width="1.33333" stroke-linecap="round" stroke-linejoin="round"/>
<path id="Vector_2" d="M6 7.33333C7.47276 7.33333 8.66667 6.13943 8.66667 4.66667C8.66667 3.19391 7.47276 2 6 2C4.52724 2 3.33333 3.19391 3.33333 4.66667C3.33333 6.13943 4.52724 7.33333 6 7.33333Z" stroke="#0A0A0A" stroke-width="1.33333" stroke-linecap="round" stroke-linejoin="round"/>
<path id="Vector_3" d="M12.6667 5.33337V9.33337" stroke="#0A0A0A" stroke-width="1.33333" stroke-linecap="round" stroke-linejoin="round"/>
<path id="Vector_4" d="M14.6667 7.33337H10.6667" stroke="#0A0A0A" stroke-width="1.33333" stroke-linecap="round" stroke-linejoin="round"/>
</g>
</svg>
